<?xml version="1.0" encoding="utf-8"?>
<!-- Generator: Adobe Illustrator 23.0.1, SVG Export Plug-In . SVG Version: 6.00 Build 0)  -->
<svg version="1.1" id="Layer_1" xmlns="http://www.w3.org/2000/svg" xmlns:xlink="http://www.w3.org/1999/xlink" x="0px" y="0px"
	 width="200px" height="42px" viewBox="0 0 200 42" style="enable-background:new 0 0 200 42;" xml:space="preserve">
<style type="text/css">
	.st0{fill:#FFFFFF;}
</style>
<rect width="200" height="42"/>
<g>
	<path class="st0" d="M19.5,24.8l-7.3-10.9v18.8H10V9.4h1.2l8.5,12.3l8.4-12.3h1.4v23.3h-2.2v-19l-7.2,10.9L19.5,24.8z"/>
	<path class="st0" d="M45.3,8.8c2.1,0,3.9,0.5,5.5,1.5c1.6,1,2.9,2.5,3.8,4.3c0.9,1.8,1.4,3.9,1.4,6.2c0,2.3-0.5,4.4-1.4,6.3
		c-0.9,1.9-2.2,3.3-3.9,4.4c-1.7,1.1-3.5,1.6-5.6,1.6c-2,0-3.9-0.5-5.5-1.5c-1.6-1-2.9-2.5-3.8-4.3c-0.9-1.8-1.4-3.9-1.4-6.2
		c0-2.3,0.5-4.4,1.4-6.2c0.9-1.9,2.2-3.3,3.9-4.4C41.3,9.4,43.2,8.9,45.3,8.8z M36.6,21.1c0,1.9,0.4,3.7,1.1,5.2s1.7,2.8,3,3.6
		s2.7,1.3,4.3,1.3c1.7,0,3.2-0.4,4.5-1.3c1.3-0.9,2.3-2.1,3.1-3.7c0.7-1.6,1.1-3.4,1.1-5.4c0-1.9-0.4-3.7-1.1-5.2
		c-0.7-1.5-1.7-2.8-3-3.6c-1.3-0.9-2.7-1.3-4.3-1.3c-1.7,0-3.2,0.4-4.5,1.3c-1.3,0.9-2.3,2.1-3.1,3.7C37,17.4,36.6,19.1,36.6,21.1z"
		/>
	<path class="st0" d="M68.5,32.7h-7.7V9.4h8c3.4,0,5.9,1.1,7.6,3.2c1.6,2.1,2.5,4.9,2.5,8.3c0,2.2-0.4,4.2-1.2,6
		c-0.8,1.8-2,3.2-3.5,4.2C72.6,32.2,70.7,32.7,68.5,32.7z M68.9,11.2H63v19.7h5.6c1.6,0,3.1-0.4,4.3-1.2s2.2-2,2.9-3.5
		c0.7-1.5,1-3.3,1-5.3c0-2.9-0.7-5.3-2-7.1C73.4,12.1,71.5,11.2,68.9,11.2z"/>
	<path class="st0" d="M83.6,32.7V9.4H96l0.2,1.5H85.8V20H94l0.2,1.5h-8.4V31h11l0.2,1.7H83.6z"/>
	<path class="st0" d="M100.9,9.4h6c2.6,0,4.7,0.5,6.2,1.6c1.5,1.1,2.2,2.7,2.2,5.1c0,3-1.4,5-4.2,6.1l6,10.6h-2.4l-5.5-10
		c-1,0.1-1.9,0.2-2.7,0.2H103v9.8h-2.1V9.4z M107,11.2h-4v10h3.6c1.9,0,3.5-0.4,4.7-1.2c1.2-0.8,1.8-2.1,1.8-3.9
		c0-1.9-0.5-3.1-1.6-3.8C110.5,11.5,109,11.2,107,11.2z"/>
	<path class="st0" d="M120.8,32.7V9.4h1.4l12.3,16.9l1.2,2V9.4h2.2v23.3h-1.4l-13-18.2l-0.5-1v19.2H120.8z"/>
	<path class="st0" d="M144.3,32.7V9.4h2.1v23.3H144.3z"/>
	<path class="st0" d="M151.7,31.7l0.5-1.6c0.7,0.4,1.6,0.7,2.6,0.9c1,0.3,2,0.4,3.1,0.4c1.9,0,3.4-0.4,4.5-1.2
		c1.1-0.8,1.6-1.8,1.6-3c0-0.9-0.2-1.6-0.7-2.2c-0.5-0.6-1.1-1.2-2-1.7c-0.9-0.5-2.1-1.1-3.6-1.8c-4.2-1.8-6.3-4.1-6.3-7
		c0-1.1,0.3-2,0.9-2.9c0.6-0.9,1.5-1.6,2.6-2.1c1.1-0.5,2.4-0.8,3.8-0.8c1.1,0,2.1,0.1,3.1,0.4c1,0.3,1.9,0.6,2.7,1l-0.8,1.6
		c-0.8-0.4-1.6-0.7-2.3-0.9c-0.7-0.2-1.6-0.3-2.6-0.3c-1.6,0-3,0.4-3.9,1.1c-1,0.7-1.4,1.7-1.4,2.8c0,0.9,0.2,1.6,0.7,2.2
		c0.5,0.6,1.1,1.2,2,1.7c0.8,0.5,2.1,1.1,3.7,1.9c1.5,0.7,2.7,1.4,3.6,2c0.9,0.6,1.5,1.3,2,2.1c0.5,0.8,0.7,1.7,0.7,2.8
		c0,1.1-0.3,2.2-1,3.1s-1.6,1.6-2.8,2.1c-1.2,0.5-2.7,0.8-4.3,0.8c-1,0-2.1-0.1-3.3-0.4C153.4,32.5,152.4,32.1,151.7,31.7z"/>
	<path class="st0" d="M179.9,24.8l-7.3-10.9v18.8h-2.1V9.4h1.2l8.5,12.3l8.4-12.3h1.4v23.3h-2.2v-19l-7.2,10.9L179.9,24.8z"/>
</g>
</svg>
